<svg width="180" height="180" viewBox="0 0 180 180" fill="none" xmlns="http://www.w3.org/2000/svg">
<g clip-path="url(#clip0_359_582)">
<rect width="180" height="180" rx="19" fill="url(#paint0_linear_359_582)"/>
<path d="M79.0759 23.786C85.4887 17.7315 95.5113 17.7315 101.924 23.786V23.786C105.796 27.4417 111.183 29.0236 116.417 28.0416V28.0416C125.085 26.4151 133.517 31.8338 135.638 40.3942V40.3942C136.919 45.5628 140.596 49.8063 145.53 51.8097V51.8097C153.701 55.1278 157.865 64.2448 155.021 72.5932V72.5932C153.304 77.6337 154.104 83.1915 157.171 87.5442V87.5442C162.251 94.7534 160.825 104.674 153.919 110.16V110.16C149.75 113.472 147.417 118.58 147.644 123.9V123.9C148.021 132.711 141.457 140.286 132.682 141.167V141.167C127.384 141.699 122.66 144.735 119.975 149.334V149.334C115.528 156.95 105.911 159.773 98.0524 155.771V155.771C93.3075 153.354 87.6925 153.354 82.9476 155.771V155.771C75.0888 159.773 65.4721 156.95 61.0249 149.334V149.334C58.3398 144.735 53.6162 141.699 48.3179 141.167V141.167C39.5427 140.286 32.9792 132.711 33.3555 123.9V123.9C33.5827 118.58 31.2502 113.472 27.0807 110.16V110.16C20.1751 104.674 18.7488 94.7534 23.8291 87.5442V87.5442C26.8965 83.1915 27.6956 77.6337 25.9787 72.5932V72.5932C23.1352 64.2447 27.2988 55.1278 35.4702 51.8097V51.8097C40.4039 49.8063 44.0809 45.5628 45.3618 40.3942V40.3942C47.4832 31.8338 55.9148 26.4151 64.5829 28.0416V28.0416C69.8165 29.0236 75.204 27.4417 79.0759 23.786V23.786Z" fill="white" fill-opacity="0.08"/>
<path d="M88.208 84.704C90.896 84.32 93.2 84.064 95.632 83.936C97.296 83.808 98.96 83.68 100.752 83.808C101.648 83.936 102.8 84.32 103.44 84.96C103.952 85.6 104.336 86.88 104.208 87.776C104.08 88.16 102.8 88.544 101.904 88.672C96.912 89.44 92.048 90.208 87.056 90.848C85.136 91.104 83.984 92.128 83.6 94.176C81.552 105.44 79.888 116.832 78.608 129.12C79.888 127.968 80.528 127.328 81.168 126.56C89.744 118.112 93.712 113.888 102.288 105.44C104.848 102.88 106.512 102.752 108.048 104.416C109.84 106.208 109.456 107.744 106.896 110.432C98.704 119.136 94.864 123.36 86.8 132.064C84.24 134.88 81.936 137.824 79.504 140.768C77.84 142.688 75.664 143.2 72.72 142.304C70.544 141.664 70.288 139.744 70.288 137.952C70.416 131.68 70.672 125.408 71.184 119.136C71.696 113.12 72.72 107.104 73.488 101.216C73.872 99.168 74.512 97.248 75.152 94.56C73.232 95.072 71.952 95.584 70.544 95.84C68.624 96.096 66.704 96.352 64.784 96.352C64.144 96.352 63.12 95.584 63.12 95.072C62.992 94.304 63.376 93.28 63.888 92.64C64.528 92 65.552 91.488 66.448 91.104C68.88 90.208 71.44 89.312 74 88.8C75.92 88.288 76.688 87.136 77.072 85.216C79.376 75.104 83.088 61.152 85.648 51.04C86.672 46.944 88.08 42.848 89.744 38.752C90.768 36.576 92.304 34.4 93.84 32.608C95.632 30.688 98.064 30.944 99.344 33.248C100.368 35.168 101.008 37.472 101.136 39.648C101.52 45.024 100.496 50.4 98.832 55.52C96.272 63.072 91.92 74.336 89.104 81.76C88.848 82.656 88.592 83.424 88.208 84.704Z" fill="white"/>
</g>
<defs>
<linearGradient id="paint0_linear_359_582" x1="217" y1="269.5" x2="-21.5" y2="-32.5" gradientUnits="userSpaceOnUse">
<stop stop-color="#040593"/>
<stop offset="1" stop-color="#5858B7"/>
</linearGradient>
<clipPath id="clip0_359_582">
<rect width="180" height="180" fill="white"/>
</clipPath>
</defs>
</svg>
